<svg width="284" height="340" viewBox="0 0 284 340" fill="none" xmlns="http://www.w3.org/2000/svg">
<path d="M-176.333 422.504C-130.247 411.95 -85.5338 393.216 -53.588 356.987C-13.6457 311.696 2.73332 252.111 28.5727 198.779C35.8543 183.724 44.2002 169.398 53.3566 155.407C59.5241 145.968 67.3835 133.405 78.5584 129.541C77.6299 128.896 76.7014 128.25 75.8132 127.586C75.5668 133.022 71.7715 137.41 68.3194 141.323C64.9294 145.158 61.495 148.843 58.4317 152.967C50.9435 163.088 44.6191 174.21 39.0315 185.504C31.0819 201.551 23.8822 218.546 19.0497 235.815C16.5881 244.617 14.5345 253.939 15.6164 263.083C15.7474 264.17 16.8737 264.822 17.8991 264.666C29.6403 263.055 41.1761 259.928 52.6649 257.017C66.4016 253.533 80.0756 249.858 93.901 246.675C99.5908 245.367 105.288 244.129 111.063 243.221C114.747 242.644 118.885 241.833 122.627 242.449C123.345 242.581 124.376 242.863 124.471 242.965C124.596 243.078 124.518 242.748 124.446 243.123C124.424 243.182 124.061 244.521 123.944 244.746C123.105 246.11 118.364 247.468 116.204 248.075C101.125 252.3 85.4324 254.49 70.1156 257.556C59.625 259.664 49.1787 261.922 38.7808 264.5C33.3072 265.854 27.8596 267.319 22.4488 268.864C20.8784 269.321 18.8092 269.592 17.4413 270.492C15.8796 271.555 14.5001 273.656 13.3205 275.129C1.83437 289.195 -6.15338 306.065 -14.517 322.059C-23.8358 339.909 -34.3294 356.789 -48.2907 371.411C-64.6746 388.519 -84.1218 402.549 -105.587 412.481C-126.598 422.179 -148.959 428.496 -170.649 436.335C-169.799 436.65 -168.918 436.977 -168.068 437.292C-170.835 432.514 -173.326 426.902 -172.655 421.221C-172.361 418.717 -176.271 418.374 -176.565 420.877C-177.267 427.183 -174.723 433.552 -171.639 438.916C-171.069 439.898 -170.141 440.275 -169.058 439.873C-148.912 432.6 -128.257 426.656 -108.602 418.096C-88.6655 409.407 -70.5023 397.581 -54.4677 382.856C-38.8131 368.526 -26.03 351.591 -15.9109 332.931C-6.86029 316.254 1.10768 298.807 12.0515 283.234C14.3623 279.97 17.2106 274.895 20.9984 273.318C26.3123 271.134 32.4681 270.099 38.033 268.678C48.8518 265.955 59.7777 263.573 70.7262 261.4C86.6215 258.214 103.073 256.138 118.605 251.41C121.428 250.546 125.832 249.466 127.338 246.573C128.26 244.805 128.906 242.163 127.381 240.426C125.58 238.352 122.104 238.369 119.616 238.419C114.839 238.524 110.097 239.346 105.432 240.23C78.1811 245.337 51.7787 254.277 24.5611 259.565C22.1188 260.033 19.6579 260.461 17.1896 260.819C17.964 261.34 18.698 261.88 19.4724 262.402C18.4948 253.966 20.4584 245.248 22.7167 237.174C25.2909 227.979 28.668 219.047 32.2982 210.243C40.3235 190.841 49.4227 171.602 62.0155 154.73C68.0471 146.649 79.2194 138.831 79.7121 127.959C79.7961 126.382 78.3504 125.512 76.9669 126.004C67.5452 129.278 60.553 138.511 54.9272 146.308C47.2022 156.978 40.2556 168.338 33.936 179.898C19.5502 206.288 8.6819 234.351 -3.12169 261.966C-15.2057 290.248 -28.618 317.703 -46.8911 342.519C-61.2905 362.104 -79.7647 378.37 -100.81 390.501C-124.442 404.119 -150.542 412.601 -177.014 418.668C-179.448 419.206 -178.809 423.061 -176.333 422.504Z" fill="#D7D7D7"/>
<path d="M39.3462 257.843C38.6075 242.461 46.6082 227.807 56.7135 216.746C67.1477 205.338 81.3054 195.947 96.7149 193.351C104.903 191.964 112.907 193.055 120.55 196.29C130.349 200.458 139.046 205.892 150.106 204.498C159.972 203.264 169.264 199.439 178.96 197.405C186.371 195.864 194.116 195.854 201.484 197.58C214.981 200.773 226.853 210.064 230.708 223.787C235.278 240.085 229.47 258.635 214.497 267.255C207.627 271.207 199.851 273.282 192.099 274.663C184.098 276.086 175.767 276.147 168.125 279.21C153.907 284.894 147.935 299.028 136.788 308.396C121.134 321.554 96.6677 320.86 78.5743 313.953C68.985 310.298 59.5546 304.324 53.8943 295.56C48.2708 286.877 46.4343 276.348 41.4658 267.338C40.2439 265.143 36.6724 266.767 37.9236 268.972C42.5388 277.316 44.4789 286.845 49.1453 295.14C53.8484 303.515 61.2021 309.691 69.5955 314.142C86.2466 322.96 106.955 325.242 124.924 319.341C133.047 316.69 139.673 311.776 145.328 305.431C150.53 299.588 154.832 292.841 160.974 287.882C168.634 281.71 177.453 280.691 186.836 279.412C195.204 278.259 203.64 276.563 211.413 273.146C227.632 266.026 236.434 251.099 236.03 233.464C235.677 218.393 227.504 205.247 214.268 198.197C199.223 190.176 183.262 191.831 167.469 196.361C161.948 197.933 156.395 199.593 150.711 200.434C144.042 201.413 138.13 199.992 132.034 197.263C122.894 193.206 114.314 188.719 104.052 188.768C88.1455 188.835 72.8997 196.751 61.0888 207.012C49.1244 217.417 39.1842 231.453 36.1944 247.261C35.4821 250.984 35.3047 254.703 35.4827 258.454C35.6212 261.051 39.4881 260.34 39.3462 257.843Z" fill="#D7D7D7"/>
<path d="M60.3095 255.027C65.2655 235.894 82.8125 222.399 97.0802 210.101C98.9884 208.464 96.5187 205.404 94.5996 207.071C79.8531 219.762 61.78 233.865 56.6425 253.668C56.0149 256.081 59.6709 257.47 60.3095 255.027Z" fill="#D7D7D7"/>
<path d="M65.5123 262.684C81.4327 275.184 103.003 288.103 123.811 280.574C126.198 279.716 124.547 276.157 122.19 277.025C102.887 284.006 82.4295 270.964 67.7903 259.508C65.8044 257.935 63.5264 261.11 65.5123 262.684Z" fill="#D7D7D7"/>
<path d="M125.773 244.854C153.203 236.832 183.217 242.094 209.515 229.565C211.791 228.466 210.17 224.917 207.894 226.016C181.947 238.408 152.182 233.104 125.092 241.018C122.713 241.677 123.342 245.561 125.773 244.854Z" fill="#D7D7D7"/>
<path d="M127.683 247.171C139.147 248.74 149.31 254.717 160.039 258.627C170.739 262.526 181.594 263.668 192.353 259.215C194.684 258.236 193.063 254.688 190.732 255.666C168.54 264.86 149.336 246.185 128.025 243.278C125.522 242.919 125.199 246.853 127.683 247.171Z" fill="#D7D7D7"/>
<path d="M128.469 240.461C132.271 224.082 150.762 219.111 164.976 215.871C167.422 215.304 166.782 211.449 164.307 212.005C148.775 215.561 128.93 221.303 124.802 239.102C124.233 241.537 127.889 242.926 128.469 240.461Z" fill="#D7D7D7"/>
<path d="M118.786 213.021C111.083 220.483 106.469 229.961 101.367 239.225C100.849 240.172 100.87 241.285 101.817 241.971C102.58 242.522 104.038 242.46 104.556 241.513C109.468 232.581 113.87 223.225 121.278 216.022C123.08 214.311 120.599 211.281 118.786 213.021Z" fill="#D7D7D7"/>
<path d="M101.456 257.348C110.467 265.444 122.231 269.804 133.276 274.3C135.591 275.259 136.955 271.577 134.641 270.619C123.888 266.232 112.535 262.024 103.745 254.143C101.861 252.473 99.6018 255.689 101.456 257.348Z" fill="#D7D7D7"/>
<path d="M67.2341 262.719C65.5448 269.797 66.4439 277.634 68.3738 284.58C70.3113 291.596 73.7162 299.423 80.3092 303.24C82.4848 304.482 84.7628 301.307 82.5981 300.035C76.7719 296.67 73.7832 289.7 72.1261 283.458C70.5025 277.397 69.4294 270.299 70.912 264.049C71.4701 261.643 67.814 260.254 67.2341 262.719Z" fill="#D7D7D7"/>
<path d="M94.8774 280.769C94.9271 290.268 97.4137 301.473 105.901 306.93C108.004 308.279 110.311 305.114 108.19 303.725C100.884 299.041 98.8152 289.23 98.7689 281.073C98.7662 280 98.1153 279.055 96.9903 278.94C96.0011 278.908 94.8638 279.726 94.8774 280.769Z" fill="#D7D7D7"/>
<path d="M18.629 214.355C12.6916 209.039 9.69606 200.827 7.70609 193.323C5.67928 185.738 4.46843 177.752 4.34231 169.901C4.17936 161.968 4.81119 153.962 6.05159 146.114C7.2449 138.483 9.08566 130.456 13.4104 123.919C17.1075 118.355 21.5611 114.981 28.264 114.451C34.52 113.956 40.9002 114.746 47.0287 113.065C58.6669 109.842 64.3152 99.3734 68.9272 89.0906C74.5701 76.4765 80.2164 63.7632 94.2758 58.9584C107.863 54.347 123.31 56.421 135.484 63.8141C147.27 70.996 156.905 83.98 157.186 98.2539C157.417 109.695 148.848 116.97 140.985 123.871C132.172 131.625 124.369 140.256 124.8 152.777C125.082 160.117 127.824 166.761 130.424 173.52C131.442 176.175 132.641 179.332 131.523 182.168C129.856 186.306 124.568 188.601 120.883 190.35C118.618 191.42 120.228 194.998 122.504 193.899C128.081 191.276 135.351 187.505 135.879 180.499C136.3 174.592 132.468 168.817 130.754 163.358C128.601 156.564 127.674 149.253 130.441 142.507C132.615 137.183 136.74 132.984 140.922 129.174C148.977 121.842 158.646 114.84 160.694 103.373C163.097 89.9597 155.44 75.5987 145.9 66.77C135.324 56.9546 120.675 51.8267 106.287 52.6575C91.2543 53.5172 79.0948 60.6677 71.7573 73.8931C65.6962 84.8448 62.5421 100.827 50.7619 107.314C39.2452 113.63 24.5432 106.305 14.5048 116.285C8.43491 122.31 5.39276 130.427 3.52676 138.613C1.30939 148.376 0.386212 158.519 0.448166 168.524C0.50741 177.457 1.77215 186.467 4.18986 195.068C6.50046 203.327 9.8774 211.68 16.3728 217.471C18.2237 219.229 20.4833 216.013 18.629 214.355Z" fill="#D7D7D7"/>
<path d="M117.296 87.5895C118.155 121.372 92.7501 155.436 57.9237 157.937C55.4219 158.115 56.0912 161.981 58.5929 161.803C94.998 159.184 122.12 123.277 121.188 87.8929C121.134 85.4276 117.235 85.0545 117.296 87.5895Z" fill="#D7D7D7"/>
<path d="M97.1797 85.962C92.6372 100.558 85.3857 114.452 76.1734 126.614C74.6581 128.632 77.8182 130.908 79.3628 128.902C88.8015 116.489 96.2537 102.234 100.887 87.3025C101.573 84.9106 97.9063 83.5515 97.1797 85.962Z" fill="#D7D7D7"/>
<path d="M44.2591 121.887C41.6686 127.526 41.2196 133.958 41.6234 140.071C42.0047 145.974 43.3282 152.125 46.2098 157.314C47.4317 159.508 50.9738 157.873 49.752 155.679C47.0948 150.875 45.9194 145.314 45.5026 139.867C45.0708 134.28 45.5798 128.406 47.9261 123.246C48.9863 120.926 45.3084 119.596 44.2591 121.887Z" fill="#D7D7D7"/>
<path d="M18.5951 135.856C17.2967 145.391 17.2557 155.224 18.6316 164.745C19.9332 173.836 22.6211 183.508 29.0203 190.369C30.7395 192.212 33.7665 189.716 32.0473 187.873C25.9347 181.32 23.5886 172.076 22.4016 163.395C21.1662 154.395 21.2857 145.161 22.4866 136.16C22.8393 133.677 18.9295 133.334 18.5951 135.856Z" fill="#D7D7D7"/>
<path d="M107.003 168.926C98.7429 176.718 87.9772 181.638 77.0076 184.138C66.7373 186.461 55.4185 187.023 45.5132 183.05C43.1882 182.121 41.8237 185.803 44.1487 186.732C54.6884 190.973 66.7768 190.496 77.7062 188.014C89.3239 185.386 100.752 180.209 109.513 171.966C111.314 170.256 108.845 167.197 107.003 168.926Z" fill="#D7D7D7"/>
<path d="M83.6308 166.628C77.022 171.046 73.3099 177.91 69.7848 184.811C69.2963 185.769 70.0467 186.985 70.9268 187.311C72.0122 187.713 72.9742 187.098 73.4224 186.159C76.6597 179.855 80.0804 173.687 86.0821 169.647C86.9635 169.069 86.9928 167.64 86.3754 166.875C85.6625 166.008 84.5232 166.021 83.6308 166.628Z" fill="#D7D7D7"/>
<path d="M97.3144 113.145C97.3109 121.886 96.4539 130.68 97.3919 139.402C97.662 141.914 101.518 141.233 101.248 138.721C100.358 130.318 101.213 121.892 101.206 113.448C101.203 112.375 100.552 111.431 99.4273 111.315C98.449 111.254 97.3117 112.072 97.3144 113.145Z" fill="#D7D7D7"/>
<path d="M76.4203 92.639C78.3175 101.114 80.2147 109.588 82.1118 118.063C82.6712 120.515 86.5163 119.863 85.9678 117.382C84.0706 108.907 82.1735 100.432 80.2763 91.9578C79.7462 89.517 75.8718 90.1578 76.4203 92.639Z" fill="#D7D7D7"/>
</svg>
