<svg width="251" height="291" viewBox="0 0 251 291" fill="none" xmlns="http://www.w3.org/2000/svg">
<path d="M210.521 150.44C199.799 146.75 186.51 140.178 186.39 127.034C186.321 118.114 191.44 109.886 193.898 101.517C198.624 85.4167 192.518 67.783 182.231 55.2052C171.673 42.2798 156.199 33.1545 139.694 30.4096C131.587 29.0487 123.207 29.2835 115.258 31.399C107.276 33.5156 99.6439 37.467 92.5872 41.7078C76.8854 51.1791 62.936 63.8656 51.6816 78.3282C40.6298 92.5416 31.6902 109.052 28.3629 126.905C26.8397 135.147 26.4944 143.773 27.9684 152.065C29.754 162.032 34.6564 171.219 41.0839 178.948C54.2413 194.754 73.8897 205.317 93.787 209.865C113.634 214.365 134.037 209.213 148.428 194.586C155.945 186.946 160.962 177.556 165.832 168.122C168.306 163.348 171.239 158.251 176.657 156.491C181.995 154.75 187.489 156.453 192.43 158.579C196.682 160.435 200.721 162.752 204.972 164.575C205.727 164.908 206.449 164.674 206.913 163.979C208.967 160.789 211.419 157.909 212.697 154.273C213.291 152.538 210.502 151.898 209.908 153.634C208.75 156.974 206.277 159.708 204.394 162.651C205.051 162.452 205.677 162.254 206.334 162.055C198.407 158.664 190.568 152.906 181.598 152.933C170.443 152.981 165.847 161.855 161.377 170.629C156.601 179.962 150.874 188.937 142.882 195.88C135.252 202.503 125.802 206.852 115.788 208.159C95.2753 210.853 73.3178 202.048 57.0386 189.969C48.7165 183.79 41.3527 176.155 36.3552 167.035C31.6838 158.505 29.7067 149.144 29.9049 139.438C30.2537 121.615 37.4407 104.464 47.034 89.698C57.0913 74.2371 70.2996 60.6351 85.2825 49.9237C98.6978 40.3471 114.207 31.9831 131.11 32.432C147.949 32.8831 164.355 40.748 176.096 52.6804C187.486 64.2838 195.449 81.7449 191.739 98.2342C189.849 106.666 185.149 114.281 183.798 122.874C182.343 132.247 186.801 140.671 194.465 146.013C199.133 149.265 204.446 151.395 209.798 153.216C211.631 153.838 212.256 151.033 210.521 150.44Z" fill="#E1D4DB"/>
<path d="M200.642 151.435C194.565 148.682 188.228 146.439 182.409 143.143C179.574 141.549 176.891 139.659 174.584 137.336C172.008 134.698 170.287 131.449 168.55 128.217C163.129 117.978 160.246 106.573 154.155 96.6791C142.778 78.2419 121.45 66.7932 100.159 64.8C88.2716 63.6892 76.2526 65.6268 65.539 70.9881C63.881 71.8182 65.3982 74.2473 67.0406 73.4339C86.4118 63.7647 109.969 66.2524 128.525 76.5749C138.396 82.0735 146.948 89.8811 152.631 99.7072C158.297 109.485 161.122 120.584 166.533 130.5C169.866 136.612 173.768 141.281 179.777 144.943C185.917 148.666 192.776 151.022 199.296 153.972C200.972 154.728 202.334 152.207 200.642 151.435Z" fill="#E1D4DB"/>
<path d="M168.208 143.158C135.275 138.055 100.153 137.522 69.8746 122.068C61.0876 117.587 53.0865 111.835 46.2263 104.767C44.9543 103.447 42.9956 105.534 44.2675 106.853C69.0624 132.328 105.675 138.059 139.373 142.247C148.786 143.421 158.21 144.481 167.583 145.931C169.373 146.23 170.015 143.441 168.208 143.158Z" fill="#E1D4DB"/>
<path d="M151.802 125.464C131.331 99.9974 98.0951 86.7909 66.1495 84.2791C64.315 84.1271 64.4208 86.9898 66.2386 87.1262C97.0478 89.5447 129.608 102.368 149.354 126.935C150.484 128.372 152.932 126.901 151.802 125.464Z" fill="#E1D4DB"/>
<path d="M123.723 119.202C110.452 117.358 98.0458 111.584 86.9048 104.329C85.3675 103.325 84.022 105.862 85.5593 106.865C96.8817 114.228 109.583 120.123 123.081 121.992C124.887 122.242 125.56 119.451 123.723 119.202Z" fill="#E1D4DB"/>
<path d="M157.578 154.815C143.364 159.025 128.736 162.471 113.827 162.072C97.863 161.625 83.1532 156.232 69.0672 149.038C59.2433 144.024 49.2429 138.027 43.387 128.385C42.4305 126.796 39.9839 128.299 40.9404 129.888C46.0273 138.243 54.0951 144.058 62.4854 148.795C70.2979 153.177 78.5021 157.142 86.9964 160.028C101.367 164.946 116.46 166.02 131.467 163.841C140.606 162.497 149.554 160.22 158.394 157.591C160.158 157.049 159.344 154.306 157.578 154.815Z" fill="#E1D4DB"/>
<path d="M152.962 166.152C142.668 177.653 129.144 185.84 113.896 188.61C96.5549 191.737 78.9583 187.748 64.8326 177.219C56.3103 170.852 49.0522 162.97 41.3271 155.687C39.9924 154.434 38.017 156.505 39.3683 157.774C53.7343 171.322 67.3167 186.742 87.5441 190.972C103.077 194.217 119.336 192.209 133.489 184.989C141.682 180.81 148.931 174.96 155.064 168.125C156.283 166.726 154.198 164.768 152.962 166.152Z" fill="#E1D4DB"/>
<path d="M107.826 174.716C97.6823 174.99 87.4768 172.79 79.4211 166.326C77.9925 165.174 76.0337 167.26 77.4624 168.413C86.1166 175.375 96.9636 177.896 107.9 177.579C109.761 177.536 109.67 174.657 107.826 174.716Z" fill="#E1D4DB"/>
<path d="M133.517 150.692C121.157 150.52 108.99 148.268 97 145.428C95.2054 144.999 94.5641 147.789 96.3587 148.217C108.578 151.115 121.004 153.391 133.591 153.556C135.453 153.578 135.364 150.731 133.517 150.692Z" fill="#E1D4DB"/>
<path d="M70.6234 136.148C64.282 133.241 58.0231 130.38 53.3226 125.056C52.0976 123.687 50.1389 125.773 51.3638 127.143C56.2322 132.655 62.755 135.67 69.3102 138.683C70.9532 139.44 72.3154 136.919 70.6234 136.148Z" fill="#E1D4DB"/>
<path d="M66.8924 103.347C60.9524 100.848 55.3178 97.7568 49.3622 95.2748C47.6722 94.5676 46.3267 97.1042 48.0167 97.8114C53.9566 100.31 59.5912 103.401 65.5468 105.883C67.2525 106.574 68.599 104.07 66.8924 103.347Z" fill="#E1D4DB"/>
<path d="M179.672 115.2C176.4 101.702 174.075 87.4293 165.382 76.1285C156.233 64.2431 142.637 55.6247 128.13 52.055C119.693 49.976 110.935 49.5103 102.294 50.2229C100.453 50.3787 100.542 53.2258 102.383 53.07C121.91 51.4598 140.29 56.6872 155.186 69.5715C161.943 75.4123 167.071 82.5194 170.232 90.8875C173.287 98.9999 174.868 107.613 176.929 116.016C177.374 117.815 180.1 116.983 179.672 115.2Z" fill="#E1D4DB"/>
<path d="M180.501 77.0393C176.78 70.4055 173.071 63.6579 168.033 57.892C162.893 51.9997 156.416 47.8341 148.943 45.53C147.194 44.9866 146.553 47.776 148.302 48.3194C155.546 50.566 161.652 54.7596 166.545 60.5464C171.168 65.9856 174.574 72.3542 178.055 78.5422C178.963 80.1487 181.394 78.6625 180.501 77.0393Z" fill="#E1D4DB"/>
<path d="M223.624 256.069C226.354 247.578 226.107 237.109 223.076 228.737C220.985 222.974 216.2 215.467 208.947 217.075C202.595 218.492 199.952 226.122 200.052 231.9C200.174 238.389 202.041 245.26 205.405 250.836C207.062 253.585 209.3 256.283 212.275 257.694C215.398 259.181 218.692 258.882 221.772 257.44C223.448 256.658 221.931 254.228 220.271 254.994C209.226 260.139 203.832 241.948 203.059 234.346C202.566 229.455 203.273 223.085 208.129 220.42C213.652 217.378 218.372 224.353 219.997 228.673C223.107 236.962 223.55 246.987 220.836 255.462C220.275 257.196 223.064 257.836 223.624 256.069Z" fill="#E1D4DB"/>
<path d="M221.436 255.492C217.936 249.726 216.318 243.057 214.514 236.622C214.021 234.84 211.262 235.673 211.771 237.438C213.647 244.098 215.385 251.005 219.005 256.979C219.945 258.552 222.408 257.064 221.436 255.492Z" fill="#E1D4DB"/>
<path d="M202 263.09C197.593 259.927 193.094 256.896 188.409 254.131C183.064 250.966 177.093 247.496 170.862 246.545C168.665 246.211 166.22 246.208 164.335 247.547C162.26 249.022 161.694 251.631 161.753 254.042C161.839 257.828 162.936 261.809 165.264 264.811C167.93 268.256 171.744 270.58 175.788 272.022C184.45 275.098 196.53 274.567 201.913 266.023C202.901 264.47 200.35 263.142 199.378 264.679C195.182 271.355 185.577 271.758 178.735 269.952C174.964 268.955 171.279 267.129 168.568 264.301C166.124 261.756 164.983 258.424 164.664 254.953C164.564 253.822 164.526 252.625 164.865 251.53C165.07 250.843 165.488 250.231 165.884 249.943C167.134 249.012 169.015 249.114 170.725 249.432C176.278 250.437 181.522 253.444 186.338 256.237C189.175 257.896 191.95 259.653 194.678 261.461C195.737 262.172 196.795 262.883 197.855 263.627C198.302 263.952 198.749 264.246 199.196 264.572C199.594 264.851 199.892 265.068 200.041 265.176C201.531 266.23 203.507 264.159 202 263.09Z" fill="#E1D4DB"/>
<path d="M199.79 264.407C193.62 263.357 187.769 261.099 181.819 259.313C180.054 258.786 179.412 261.575 181.178 262.102C187.128 263.888 192.979 266.147 199.149 267.197C200.956 267.512 201.613 264.705 199.79 264.407Z" fill="#E1D4DB"/>
<path d="M190.6 234.111C189.429 226.7 187.927 218.538 183.075 212.539C180.111 208.877 175.704 205.18 170.948 204.295C168.912 203.923 166.783 204.185 165.209 205.628C163.399 207.289 162.929 209.862 162.808 212.198C162.513 218.296 166.377 223.808 170.788 227.634C175.615 231.82 181.92 235.133 188.396 235.59C190.229 235.71 190.123 232.847 188.307 232.743C183.584 232.424 178.897 230.096 175.088 227.4C170.964 224.471 167.112 220.384 165.934 215.32C165.186 212.138 165.526 206.427 170.03 207.045C173.965 207.567 177.659 210.72 180.225 213.569C185.142 219.064 186.625 227.146 187.736 234.186C188.02 235.991 190.883 235.916 190.6 234.111Z" fill="#E1D4DB"/>
<path d="M188.88 231.932C184.976 228.267 181.497 224.216 177.594 220.552C176.259 219.299 174.284 221.37 175.635 222.638C179.539 226.303 183.017 230.354 186.921 234.018C188.272 235.287 190.231 233.2 188.88 231.932Z" fill="#E1D4DB"/>
</svg>
