<svg width="280" height="292" viewBox="0 0 280 292" fill="none" xmlns="http://www.w3.org/2000/svg">
<path d="M42.3719 113.265C68.8534 124.94 106.435 128.314 129.52 107.657C130.152 107.097 130.047 106.112 129.529 105.505C123.931 99.0787 115.174 95.648 107.352 92.7846C98.0076 89.3511 88.8213 87.1013 78.8099 87.0089C69.5815 86.9202 61.4139 88.7328 53.1792 92.9441C49.0513 95.0438 45.1086 97.5024 41.2379 100.031C39.5168 101.166 37.7837 102.323 36.0715 103.492C34.8697 104.311 33.2409 104.996 32.5008 106.278C32.0641 107.034 32.3827 107.89 33.0523 108.333C35.9765 110.358 39.2866 111.568 42.3719 113.265C44.0783 114.195 45.6158 111.58 43.8884 110.639C40.8032 108.942 37.493 107.731 34.5777 105.739C34.7644 106.436 34.9512 107.132 35.1291 107.795C35.6265 106.933 38.0641 105.819 39.0273 105.171C40.6368 104.082 42.2673 103.007 43.8856 101.952C47.3819 99.6835 50.9501 97.4849 54.6736 95.6001C62.6156 91.5559 70.445 89.9404 79.3452 90.0637C88.6367 90.1888 97.113 92.3088 105.79 95.4412C113.339 98.1468 121.952 101.438 127.367 107.647C127.367 106.918 127.376 106.223 127.376 105.494C116.254 115.435 101.177 119.115 86.5698 119.311C72.0166 119.51 57.2088 116.508 43.8674 110.627C42.1181 109.869 40.5806 112.483 42.3719 113.265Z" fill="#DBDBDB"/>
<path d="M37.663 108.165C53.2709 105.605 69.1181 104.864 84.9159 105.131C91.7174 105.248 98.4841 105.036 105.286 104.957C112.393 104.885 119.736 105.034 126.479 107.582C128.298 108.268 129.072 105.325 127.253 104.639C120.754 102.203 113.649 101.884 106.796 101.905C99.4968 101.922 92.236 102.213 84.9347 102.088C68.8538 101.826 52.7955 102.641 36.9135 105.239C34.9579 105.567 35.7617 108.496 37.663 108.165Z" fill="#DBDBDB"/>
<path d="M118.125 107.775C101.833 111.229 85.2686 115.057 68.4979 113.416C66.5626 113.223 66.5771 116.258 68.5124 116.45C85.5208 118.117 102.372 114.229 118.896 110.713C120.813 110.307 120.03 107.389 118.125 107.775Z" fill="#DBDBDB"/>
<path d="M94.0143 95.9273C84.4527 94.8618 75.0681 96.1118 65.6284 97.5542C63.6972 97.8401 64.5009 100.77 66.4112 100.472C75.6308 99.0704 84.738 97.9123 94.0409 98.9406C95.9729 99.1875 95.9375 96.1411 94.0143 95.9273Z" fill="#DBDBDB"/>
<path d="M64.0544 108.973C59.9703 108.52 55.9364 107.592 51.8086 107.506C50.9837 107.479 50.297 108.231 50.3026 109.047C50.2961 109.883 51.007 110.546 51.844 110.553C55.9718 110.639 60.0057 111.567 64.0898 112.019C64.9115 112.102 65.6046 111.241 65.5958 110.479C65.5723 109.597 64.8639 109.076 64.0544 108.973Z" fill="#DBDBDB"/>
<path d="M15.6893 85.6721C44.689 84.1475 79.5462 70.1466 90.886 41.2792C91.2177 40.462 90.4801 39.7 89.8008 39.4198C81.784 36.1642 72.1988 37.1303 63.851 38.1384C54.6265 39.2567 46.0401 41.1637 37.5894 45.1663C29.1056 49.1779 22.3483 54.3263 16.6892 61.8459C13.7824 65.7152 11.2509 69.8572 8.82446 74.0598C7.74471 75.93 6.67386 77.8334 5.61514 79.7157C4.87184 81.0517 3.72498 82.4068 3.64322 83.9566C3.60761 84.5525 4.13729 85.3346 4.78428 85.4279C8.42841 85.9629 12.0314 85.5495 15.6893 85.6721C17.6432 85.7355 17.6287 82.7012 15.6748 82.6378C12.3 82.5105 8.90166 82.958 5.54624 82.5057C5.92956 83.0072 6.304 83.4755 6.68731 83.977C6.74559 83.002 8.54675 80.7078 9.14122 79.6782C10.1393 77.9009 11.1374 76.1236 12.1775 74.3707C14.3823 70.6004 16.6922 66.8908 19.3264 63.3965C24.7372 56.2099 31.4297 51.4163 39.5302 47.6317C47.6186 43.8682 55.9001 42.1494 64.7057 41.1254C72.5804 40.2084 81.5178 39.3446 89.0356 42.3962C88.6709 41.7654 88.3151 41.1677 87.9504 40.5369C82.4875 54.4177 70.6301 64.4666 57.6755 71.2202C44.7661 77.944 30.2062 81.8937 15.6959 82.65C13.7323 82.7491 13.7467 85.7833 15.6893 85.6721Z" fill="#DBDBDB"/>
<path d="M8.85167 83.4335C22.02 73.8333 36.2024 65.8272 50.8716 58.7746C56.9178 55.8774 62.7578 52.6089 68.7054 49.5426C74.6862 46.4674 81.022 43.4572 87.7758 42.7335C89.6917 42.5229 89.6983 39.5008 87.7613 39.6993C74.4948 41.1176 63.1349 49.5765 51.3804 55.1739C36.0117 62.467 21.1054 70.7557 7.34512 80.7986C5.78663 81.9441 7.29318 84.579 8.85167 83.4335Z" fill="#DBDBDB"/>
<path d="M80.6772 46.6762C67.8129 57.0123 54.8411 67.8747 39.2969 73.9178C37.4934 74.6136 38.264 77.5521 40.0796 76.8352C56.1576 70.596 69.5006 59.5277 82.821 48.8386C84.3407 47.6146 82.1847 45.4733 80.6772 46.6762Z" fill="#DBDBDB"/>
<path d="M54.1642 46.8071C45.1321 50.1658 37.3235 55.4357 29.5197 60.9886C27.9402 62.122 29.4467 64.7569 31.0262 63.6235C38.5914 58.2411 46.18 53.0123 54.9469 49.7245C56.7714 49.0408 55.9887 46.1234 54.1642 46.8071Z" fill="#DBDBDB"/>
<path d="M33.3131 71.9482C29.3413 73.4375 25.2119 74.4715 21.3711 76.3166C20.6651 76.6655 20.3957 77.7147 20.7903 78.3909C21.2569 79.1366 22.1053 79.3182 22.8655 78.9726C23.8069 78.5075 24.5429 78.2039 25.4446 77.856C26.4127 77.4903 27.3897 77.1578 28.3666 76.8253C30.2753 76.1901 32.1807 75.6091 34.0715 74.9077C34.8164 74.6373 35.4157 73.8906 35.1392 73.0585C34.9556 72.3081 34.1243 71.6601 33.3131 71.9482Z" fill="#DBDBDB"/>
<path d="M324.849 -47.9992C341.98 -22.1862 355.276 6.39135 368.497 34.374C374.25 46.5391 379.584 58.9836 383.758 71.8009C387.623 83.7353 390.914 96.4976 390.365 109.124C390.114 115.139 389.262 124.177 382.704 126.786C377.799 128.733 371.763 126.758 366.965 125.368C358.494 122.884 344.551 116.676 338.682 126.89C335.502 132.443 336.181 139.248 337.399 145.29C339.065 153.452 341.874 161.333 344.033 169.327C346.117 177.088 348.305 185.91 346.141 193.889C343.932 201.979 335.983 207.453 327.683 207.516C318.127 207.571 309.446 201.033 302.076 195.675C295.135 190.595 288.089 184.577 279.757 182C271.239 179.385 263.79 183.073 257.571 188.843C249.346 196.437 243.337 206.139 236.602 214.996C229.829 223.918 222.655 231.334 212.428 236.234C204.552 240.006 191.387 244.61 184.479 236.686C177.002 228.092 180.671 213.26 183.473 203.523C187.062 191.043 192.268 179.054 197.093 167.038C199.01 162.248 200.881 157.449 202.501 152.576C202.935 151.237 201.53 150.039 200.313 150.086C191.687 150.447 182.855 149.172 174.496 147.096C166.323 145.058 156.177 141.878 150.831 134.845C144.545 126.585 151.4 116.761 158.159 111.316C166.97 104.177 177.811 99.8352 187.805 94.6479C197.957 89.3954 209.399 82.8773 213.649 71.5681C214.056 70.4893 213.776 69.3459 212.659 68.7612C201.283 62.6535 188.691 58.1646 178.51 50.0476C174.648 46.9829 170.124 42.6264 170.488 37.2615C171.007 29.6559 179.987 24.0976 185.867 20.8941C195.972 15.3906 207.224 12.7497 218.244 9.82072C226.002 7.74065 238.075 6.68881 240.524 -2.85237C241.079 -5.03771 240.231 -6.12473 238.928 -7.71344C236.683 -10.5286 237.617 -14.2576 237.677 -17.7256C237.684 -19.585 237.28 -22.5412 238.337 -24.2157C239.487 -26.1133 242.888 -26.8136 244.829 -27.4661C256.972 -31.6697 269.582 -34.2096 281.995 -37.586C288.87 -39.4794 295.97 -40.6756 302.911 -42.411C310.307 -44.249 317.666 -46.2636 325.025 -48.2783C327.608 -48.9964 326.291 -52.9559 323.69 -52.2657C310.477 -48.6375 297.218 -45.2603 283.828 -42.32C277.463 -40.9291 271.183 -38.9898 264.864 -37.4688C258.546 -35.9479 252.218 -34.3804 246.049 -32.2738C241.543 -30.7545 235.15 -29.4658 233.866 -24.0909C233.229 -21.3662 233.521 -18.3355 233.451 -15.5463C233.4 -12.1248 232.764 -8.67498 234.971 -5.79475C235.371 -5.25586 236.469 -4.57812 236.489 -3.94592C236.613 -1.40786 232.007 1.71075 230.159 2.38178C224.863 4.34812 218.934 5.36672 213.452 6.81259C201.727 9.89092 189.862 13.1832 179.535 19.8026C173.972 23.359 167.715 28.7104 166.452 35.5636C165.493 40.7617 167.953 45.529 171.389 49.2821C181.695 60.5415 197.634 65.576 210.769 72.5654C210.423 71.6267 210.125 70.6972 209.779 69.7585C205.409 81.4304 192.674 87.522 182.234 92.7655C171.571 98.1579 159.616 103.003 151.281 111.88C145.425 118.133 141.442 127.368 146.101 135.425C150.63 143.287 160.312 147.22 168.551 149.779C178.696 152.959 189.797 154.735 200.449 154.27C199.723 153.424 199.015 152.607 198.261 151.78C194.272 163.842 188.889 175.385 184.426 187.28C180.342 198.236 176 210.01 175.971 221.845C175.957 231.533 179.328 242.064 189.751 244.575C199.412 246.909 210.049 242.502 218.324 237.818C228.28 232.213 235.202 223.755 241.909 214.675C248.551 205.679 254.94 195.037 264.309 188.614C272.926 182.694 281.26 186.359 289.15 191.651C297.356 197.176 304.886 203.919 313.862 208.244C322.131 212.235 331.121 213.082 339.331 208.482C346.287 204.599 350.172 197.809 350.811 189.961C352.217 172.527 342.249 156.768 340.523 139.774C340.014 134.912 340.431 127.455 346.145 125.814C351.19 124.378 357.356 126.91 362.117 128.366C372.505 131.546 386.388 135.494 391.807 122.678C395.772 113.294 394.695 101.794 392.98 92.0517C390.628 78.5819 386.184 65.5417 381.026 52.939C376.026 40.6338 370.236 28.6546 364.233 16.7779C356.663 1.71361 349.558 -13.6208 341.394 -28.3684C337.247 -35.8399 332.849 -43.1437 328.099 -50.252C326.822 -52.5845 323.339 -50.2571 324.849 -47.9992Z" fill="#DBDBDB"/>
<path d="M322.649 -52.376C314.429 -15.5887 296.688 18.4084 280.498 52.1345C272.019 69.7789 263.8 87.5718 255.032 105.086C245.783 123.568 236.356 141.966 227.414 160.606C222.521 170.772 217.777 181.041 213.302 191.411C211.069 196.573 208.902 201.772 206.827 206.99C204.67 212.384 203.228 217.945 201.116 223.348C200.162 225.841 203.902 227.697 204.883 225.186C206.587 220.74 207.724 216.109 209.446 211.692C211.308 206.939 213.234 202.224 215.235 197.499C219.237 188.049 223.462 178.693 227.836 169.438C236.759 150.529 246.26 131.879 255.621 113.202C264.74 95.0088 273.414 76.6298 282.18 58.2693C290.372 41.0993 298.834 24.0314 306.524 6.59223C314.769 -12.1862 322.242 -31.4567 326.712 -51.5428C327.359 -54.1931 323.24 -54.9891 322.649 -52.376Z" fill="#DBDBDB"/>
<path d="M245.346 187.859C244.368 180.124 243.595 172.334 243.016 164.534C242.353 155.702 241.745 146.712 242.457 137.888C242.621 135.843 240.351 134.497 238.82 136.125C228.667 146.863 216.912 155.929 206.945 166.825C205.126 168.807 208.3 171.565 210.119 169.583C220.086 158.687 231.841 149.622 241.994 138.884C240.784 138.28 239.547 137.696 238.357 137.12C237.608 146.13 238.123 155.222 238.805 164.203C239.393 172.198 240.176 180.184 241.182 188.142C241.502 190.791 245.684 190.536 245.346 187.859Z" fill="#DBDBDB"/>
<path d="M296.408 171.275C278.32 145.779 272.903 115.484 268.128 85.2439C267.95 84.0726 266.712 82.7627 265.383 83.3682C245.208 92.8598 224.623 101.375 204.382 110.709C201.939 111.818 203.246 115.824 205.717 114.696C225.958 105.363 246.543 96.8472 266.718 87.3556C265.806 86.7149 264.885 86.1207 263.973 85.4799C268.88 116.398 274.427 147.493 292.953 173.584C294.471 175.795 297.972 173.496 296.408 171.275Z" fill="#DBDBDB"/>
<path d="M324.521 110.827C308.026 87.8959 300.689 59.6106 293.669 32.6453C293.332 31.2975 291.584 30.8527 290.526 31.5602C272.167 43.5884 250.051 48.1262 231.702 60.1078C229.454 61.5694 231.755 65.0725 234.03 63.5922C252.361 51.5827 274.496 47.0728 292.855 35.0447C291.813 34.6923 290.753 34.312 289.711 33.9597C296.852 61.2875 304.339 89.9166 321.039 113.155C322.613 115.329 326.095 113.001 324.521 110.827Z" fill="#DBDBDB"/>
<path d="M344.231 62.0451C335.298 36.5597 323.068 12.4718 313.142 -12.6315C312.759 -13.626 311.568 -14.4431 310.481 -13.9587C291.457 -5.63963 269.808 -6.61556 251.129 2.76312C248.714 3.97387 251.071 7.43971 253.458 6.24757C271.737 -2.94481 293.136 -1.80131 311.798 -9.99922C310.895 -10.4447 310.04 -10.8809 309.137 -11.3264C319.073 13.7305 331.294 37.8649 340.226 63.3503C341.122 65.897 345.108 64.5639 344.231 62.0451Z" fill="#DBDBDB"/>
</svg>
