<svg width="218" height="292" viewBox="0 0 218 292" fill="none" xmlns="http://www.w3.org/2000/svg">
<path d="M36.8091 282.129C58.2532 261.399 80.1737 238.996 92.1012 211.197C97.8971 197.667 99.7461 183.532 100.426 168.945C101.118 153.813 100.106 137.347 105.822 123.065C109.022 115.074 113.95 107.912 119.737 101.565C122.689 98.3076 125.848 95.2831 129.19 92.4141C130.9 90.9341 132.675 89.5189 134.436 88.1297C135.81 87.065 137.389 85.1314 138.997 84.5721C141.201 83.7918 140.051 80.37 137.847 81.1503C135.253 82.0606 134.024 83.8124 131.951 85.5002C129.037 87.902 126.083 90.252 123.312 92.8222C117.782 97.9368 112.772 103.634 108.634 109.927C104.703 115.935 101.668 122.551 99.9581 129.567C98.184 136.843 97.8644 144.519 97.4924 151.975C96.7371 167.626 97.1247 183.652 92.7733 198.84C88.3316 214.274 79.6169 228.391 69.8865 241.03C59.1597 254.954 46.7426 267.518 34.1169 279.72C32.4335 281.342 35.1516 283.764 36.8091 282.129Z" fill="#DCD3D7"/>
<path d="M81.8933 219.519C65.8676 226.24 47.3387 211.348 37.8764 199.741C32.9826 193.743 28.1631 186.227 27.7683 178.293C27.6055 175.298 28.2865 172.302 30.1887 169.914C32.4017 167.163 36.8992 164.578 40.4558 164.794C44.7004 165.062 45.3105 170.741 45.7983 173.995C46.4573 178.338 46.7145 182.901 48.2556 187.036C51.4421 195.551 62.4068 200.233 70.7824 196.568C79.0412 192.942 81.911 182.423 78.596 174.491C75.0069 165.873 67.0749 159.333 60.1954 153.35C53.563 147.587 44.0743 141.374 41.3025 132.612C39.2888 126.169 40.6096 119.283 43.6718 113.393C44.2145 112.368 46.1635 107.737 47.7598 107.723C47.8507 107.735 48.9196 109.757 49.1805 110.34C52.3519 117.909 52.7502 127.335 58.3198 133.734C63.5381 139.732 73.4321 141.615 77.8139 133.921C82.2732 126.072 80.1244 117.296 77.3027 109.416C75.5784 104.607 73.3454 98.7359 75.8388 93.7932C77.2987 90.9261 83.3338 85.3831 87.0895 87.5445C91.0013 89.7835 89.344 97.0852 92.3753 100.246C97.8135 105.932 106.378 94.3961 107.355 89.9606C108.51 84.5136 106.822 78.7844 105.227 73.5867C103.37 67.5464 101.357 61.4285 100.719 55.0888C100.016 48.2304 101.675 41.9012 106.101 36.5285C109.79 32.0513 115.052 29.1672 120.473 27.2036C125.556 25.3311 131.925 23.8073 137.173 25.9671C141.928 27.9459 143.482 32.1193 141.442 36.6077C138.64 42.8215 130.246 49.9747 132.95 57.5052C134.204 60.9788 137.988 63.8014 141.635 64.0957C145.659 64.4156 149.548 62.3369 152.944 60.4662C157.429 57.9719 161.705 54.9204 166.542 53.1518C171.767 51.2532 176.793 52.5575 181.588 55.1067C191.282 60.257 198.538 71.8021 191.852 82.1691C185.477 92.0431 173.001 90.7857 162.962 93.4285C152.741 96.1103 135.747 110.248 149.94 119.193C155.347 122.597 161.775 124.341 167.763 126.448C173.426 128.426 180.258 130.467 184.577 134.884C188.337 138.731 187.379 145.41 182.596 148.112C177.36 151.074 169.761 148.488 164.488 146.899C151.916 143.165 134.362 134.198 121.726 142.121C113.523 147.264 111.081 157.899 113.737 166.83C116.758 176.979 126.899 184.619 137.454 180.225C142.355 178.197 146.525 174.575 151.688 173.195C156.513 171.906 162.979 173.183 166.776 176.563C172.733 181.795 167.612 189.995 163.041 194.162C156.552 200.095 148.018 202.386 139.525 200.165C133.109 198.46 122.261 193.544 116.994 200.085C111.08 207.404 118.233 214.074 122.905 219.281C126.028 222.779 126.776 226.486 123.163 230.095C119.991 233.275 115.085 233.293 110.931 232.584C102.842 231.18 94.4611 227.104 88.0249 221.989C86.2175 220.539 83.7709 223.239 85.6042 224.702C92.2876 230.037 100.746 234.216 109.147 235.97C117.016 237.622 127.512 235.821 129.242 226.354C130.869 217.548 119.143 214.786 118.489 206.981C117.489 195.313 135.456 203.06 140.78 204.222C148.922 206.041 157.481 203.309 163.894 198.181C169.166 193.974 174.484 186.941 172.767 179.773C170.801 171.606 159.787 168.065 152.393 169.369C147.061 170.309 142.759 173.607 138.028 176.01C131.87 179.129 125.353 178.28 120.772 172.761C113.939 164.47 114.514 149.442 125.054 144.426C131.886 141.19 140.34 143.359 147.249 145.31C155.002 147.519 162.563 150.635 170.497 152.222C176.132 153.344 182.894 153.7 187.089 149.054C190.895 144.861 191.788 138.377 188.286 133.752C184.511 128.764 177.834 126.347 172.197 124.252C165.78 121.899 158.975 120.13 152.958 116.843C148.046 114.138 146.26 110.691 150.117 106.006C153.158 102.308 157.161 99.1527 161.7 97.5919C166.835 95.8101 172.325 95.532 177.643 94.4891C187.879 92.4944 197.377 85.8586 198.051 74.6033C198.677 64.4891 190.986 55.771 182.384 51.4883C178.019 49.3147 173.018 47.8289 168.141 48.8973C163.303 49.9526 158.948 52.7061 154.762 55.1871C151.081 57.3693 145.705 61.4593 141.108 60.401C136.264 59.3169 135.254 54.7669 137.075 50.8492C140.071 44.3759 148.633 37.015 145.383 29.148C141.05 18.6371 126.675 20.8696 118.389 24.0939C107.73 28.2414 98.4305 36.3033 97.0436 48.2725C96.3567 54.2765 97.6426 60.2915 99.2005 66.0857C100.889 72.3336 103.668 78.6711 103.995 85.1797C104.171 88.4081 103.491 91.5985 101.277 94.0903C100.319 95.1675 97.5227 98.049 95.8093 97.973C93.9662 97.8972 93.7648 94.98 93.4109 93.4763C92.1396 88.1486 90.0624 82.2901 83.3043 83.8791C78.6346 84.9862 74.0613 88.44 72.1638 92.9024C70.2016 97.4296 71.1607 102.472 72.56 107.022C74.0377 111.805 76.4754 116.418 76.6558 121.462C76.8077 125.391 76.3132 130.422 73.6079 133.511C70.1907 137.443 63.9546 134.662 61.0269 131.424C58.0733 128.172 56.8678 123.233 55.6643 119.137C54.6178 115.638 52.3263 101.287 45.8317 104.561C41.6316 106.679 39.1429 113.631 37.8936 117.769C36.232 123.19 36.1419 129.103 38.0622 134.495C41.1583 143.192 50.0499 149.367 56.7603 155.169C63.8088 161.269 73.4426 168.494 75.9176 177.982C77.1748 182.817 75.4754 188.77 71.4723 191.861C66.6659 195.587 59.7196 194.363 55.2465 190.711C47.8477 184.664 51.2479 173.405 47.1934 165.591C43.2823 158.01 33.2711 161.509 28.3893 166.298C23.5594 171.049 23.3161 178.051 25.0696 184.234C29.676 200.579 45.3627 215.513 60.7956 221.772C67.8106 224.617 75.7823 225.866 82.9524 222.863C85.2087 222.044 84.0587 218.622 81.8933 219.519Z" fill="#DCD3D7"/>
</svg>
