<svg width="181" height="175" viewBox="0 0 181 175" fill="none" xmlns="http://www.w3.org/2000/svg">
<path d="M114.317 60.8302C103.084 52.3313 89.6052 44.5688 75.3041 43.5189C61.7401 42.5144 50.2407 49.395 43.6936 61.2369C37.7323 72.0137 35.5129 84.8659 34.6454 97.0603C33.6771 110.692 34.4266 124.841 37.9711 138.115C40.497 147.507 44.5175 157.57 53.6428 162.246C61.6069 166.342 70.9574 165.108 79.1351 162.496C89.1064 159.324 98.3292 153.943 106.931 148.063C115.017 142.574 123.322 136.506 130.039 129.38C138.685 120.214 143.602 108.111 140.391 95.4637C136.692 80.8933 125.432 70.9075 115.179 60.7393C113.799 59.375 111.441 61.2858 112.83 62.6725C121.548 71.3052 131.084 79.5719 135.822 91.2414C139.919 101.297 138.819 111.962 132.864 120.969C127.419 129.16 119.164 135.339 111.358 141.158C103.743 146.811 95.6996 152.039 87.0857 156.051C79.2905 159.696 70.3318 162.817 61.5794 161.589C52.536 160.304 46.8478 153.637 43.5446 145.476C38.9535 134.195 37.4922 121.543 37.3106 109.496C37.1243 97.0231 38.3333 84.1673 42.251 72.3229C46.6027 59.1332 55.6865 47.4426 70.4356 46.5252C85.6971 45.5662 100.751 54.4182 112.533 63.3141C114.126 64.5027 115.888 62.0287 114.317 60.8302Z" fill="#D3CBCF"/>
<path d="M115.201 60.7294C112.499 58.1891 110.036 55.1137 109.447 51.3611C108.962 48.258 109.89 45.1661 111.324 42.4365C114.687 36.0609 120.267 31.0232 124.958 25.66C127.405 22.8794 129.77 19.9748 131.352 16.5639C130.394 16.3226 129.415 16.0911 128.435 15.8597C125.365 30.9663 127.556 50.6552 112.69 59.924C111.052 60.9509 112.979 63.3021 114.627 62.2975C130.318 52.4992 128.21 32.1041 131.453 16.1972C131.818 14.4009 129.204 14.0167 128.527 15.4707C125.473 22.0027 119.459 27.0202 114.845 32.376C110.389 37.5535 105.581 43.9599 106.366 51.2392C106.858 55.7847 109.638 59.6286 112.863 62.6849C114.277 64.0072 116.635 62.0963 115.201 60.7294Z" fill="#D3CBCF"/>
<path d="M116.766 61.7968C125.234 54.3705 136.437 48.6667 147.944 51.3668C147.585 50.5636 147.226 49.7603 146.867 48.957C143.633 54.0168 138.151 57.4313 132.664 59.5894C127.178 61.7475 120.619 62.9926 114.913 60.8582C113.071 60.1823 112.002 63.0164 113.844 63.6922C120.182 66.0527 127.325 64.8677 133.481 62.5442C139.583 60.2182 145.768 56.3558 149.328 50.7214C149.978 49.6812 149.381 48.5828 148.251 48.3115C136.001 45.4347 123.827 51.5192 114.819 59.4009C113.365 60.7204 115.302 63.0939 116.766 61.7968Z" fill="#D3CBCF"/>
<path d="M113.975 60.6617C97.1206 53.3643 90.7206 32.6923 99.0623 16.7285C98.198 16.8739 97.3338 17.0192 96.4818 17.1324C99.2903 20.2676 102.415 23.1008 105.202 26.2458C107.854 29.2099 110.63 32.6276 110.954 36.7392C111.115 38.7021 114.089 38.2292 113.961 36.2787C113.279 27.5077 104.219 21.1968 98.82 15.1769C97.9872 14.2641 96.7689 14.5677 96.2395 15.5808C87.1197 33.0704 94.6752 55.5551 112.918 63.4635C114.712 64.2682 115.781 61.4342 113.975 60.6617Z" fill="#D3CBCF"/>
<path d="M69.6155 53.7185C67.9259 55.7589 67.3975 58.3779 66.7971 60.8951C66.7176 61.2519 66.9149 61.7527 67.1431 62.0255C67.3712 62.2983 67.7742 62.5466 68.1538 62.5643C68.5655 62.5944 68.9816 62.5155 69.2758 62.2234C69.6021 61.9437 69.7236 61.6216 69.8052 61.2103C69.7909 61.297 69.7015 61.6315 69.8052 61.2103C69.8195 61.1236 69.856 61.027 69.8703 60.9403C69.909 60.7891 69.9376 60.6157 69.9763 60.4645C70.0535 60.1623 70.1208 59.8377 70.2202 59.5255C70.3726 58.9755 70.5249 58.4255 70.7094 57.8879C70.7845 57.6402 70.8917 57.4049 70.9989 57.1695C71.0575 57.063 71.1061 56.9342 71.1647 56.8277C71.189 56.7633 71.2133 56.6989 71.2476 56.6568C71.3769 56.4116 71.0597 57.0085 71.189 56.7633C71.4576 56.2952 71.7462 55.8717 72.0668 55.4606C72.5689 54.8614 72.3634 53.7485 71.6958 53.3241C70.9961 52.8872 70.1419 53.0549 69.6155 53.7185Z" fill="#D3CBCF"/>
<path d="M95.2335 68.5041C94.8936 69.9411 94.3068 71.3011 93.6459 72.6139C93.5994 72.6882 93.5751 72.7526 93.5287 72.8269C93.6337 72.6461 93.5873 72.7204 93.5166 72.8591C93.4337 73.03 93.3408 73.1786 93.2579 73.3495C93.0822 73.669 92.8843 73.9984 92.6985 74.2956C92.3028 74.9544 91.8849 75.6231 91.467 76.2918C91.0491 76.9606 91.0962 77.9568 91.838 78.4284C92.4835 78.8627 93.4961 78.8117 93.9604 78.0687C95.6098 75.4038 97.3378 72.6769 98.0806 69.5874C98.1843 69.1662 98.2195 68.8292 98.04 68.4275C97.8903 68.0928 97.5459 67.7381 97.2028 67.6238C96.4944 67.405 95.4288 67.6939 95.2335 68.5041Z" fill="#D3CBCF"/>
<path d="M122.918 91.95C122.895 92.2548 122.872 92.5596 122.849 92.8644C122.832 93.0057 122.816 93.1469 122.777 93.298C122.763 93.3848 122.738 93.4492 122.724 93.5359C122.722 93.5904 122.647 93.8382 122.712 93.5681C122.777 93.298 122.702 93.5458 122.7 93.6003C122.685 93.687 122.661 93.7514 122.647 93.8382C122.608 93.9893 122.547 94.1503 122.509 94.3014C122.421 94.5814 122.302 94.8489 122.183 95.1165C122.112 95.2552 122.063 95.384 121.993 95.5227C121.876 95.7357 121.993 95.5227 122.029 95.4261C121.983 95.5004 121.958 95.5648 121.912 95.6391C121.761 95.8942 121.587 96.1592 121.413 96.4242C121.24 96.6892 121.034 96.9418 120.851 97.1844C120.726 97.3206 120.623 97.4469 120.498 97.5831C120.407 97.6772 120.206 97.8207 120.52 97.5732C120.441 97.6351 120.395 97.7094 120.316 97.7713C120.022 98.0634 119.814 98.3705 119.787 98.7843C119.74 99.1535 119.873 99.6295 120.133 99.9147C120.644 100.463 121.665 100.729 122.276 100.135C123.386 98.996 124.316 97.7504 124.993 96.2963C125.576 95.0454 125.891 93.6728 125.946 92.3099C125.989 91.5144 125.457 90.6812 124.601 90.6085C123.81 90.5606 122.963 91.1001 122.918 91.95Z" fill="#D3CBCF"/>
<path d="M74.3046 78.0467C73.2327 80.3999 72.1464 82.8399 72.0297 85.489C71.9871 86.2844 72.5188 87.1176 73.3743 87.1903C74.1435 87.2481 75.013 86.6988 75.0578 85.8488C75.0718 85.2268 75.1721 84.6197 75.2945 84.0028C75.2967 83.9482 75.321 83.8838 75.3453 83.8194C75.2858 84.2208 75.3067 83.9706 75.321 83.8838C75.3597 83.7327 75.3983 83.5816 75.4369 83.4304C75.5142 83.1282 75.6236 82.8383 75.7108 82.5584C76.1162 81.3866 76.6279 80.2744 77.1395 79.1622C77.4833 78.4463 77.0023 77.4298 76.2618 77.1986C75.4371 76.8979 74.6726 77.2664 74.3046 78.0467Z" fill="#D3CBCF"/>
<path d="M97.1582 94.3089C96.6229 96.5561 95.5818 98.6814 94.6071 100.777C94.2733 101.515 94.7443 102.509 95.4848 102.741C96.2995 103.019 97.0861 102.641 97.432 101.87C98.3846 99.7845 99.4257 97.6592 99.9831 95.4021C100.087 94.9809 100.122 94.6439 99.9425 94.2423C99.7929 93.9076 99.4485 93.5528 99.1053 93.4385C98.7301 93.3117 98.2963 93.2915 97.9522 93.4721C97.6203 93.6204 97.2498 93.9199 97.1582 94.3089Z" fill="#D3CBCF"/>
<path d="M53.7559 88.1428C52.8035 92.1293 51.3994 95.9964 50.4469 99.9829C50.2637 100.761 50.4878 101.678 51.3247 101.946C52.0209 102.197 53.0865 101.909 53.2718 101.076C54.2243 97.0896 55.6284 93.2225 56.5809 89.236C56.7641 88.458 56.5399 87.5408 55.7031 87.2724C55.0168 87.0437 53.9513 87.3326 53.7559 88.1428Z" fill="#D3CBCF"/>
<path d="M76.5176 104.794C76.0431 106.88 76.0002 109.041 75.5257 111.127C75.4463 111.484 75.6436 111.985 75.8717 112.258C76.0999 112.53 76.5029 112.779 76.8825 112.796C77.2942 112.826 77.7102 112.748 78.0044 112.455C78.3307 112.176 78.4522 111.854 78.5338 111.442C79.0084 109.356 79.0512 107.195 79.5257 105.109C79.6052 104.752 79.4079 104.252 79.1797 103.979C78.9516 103.706 78.5486 103.458 78.169 103.44C77.7573 103.41 77.3412 103.489 77.047 103.781C76.7307 104.083 76.5992 104.383 76.5176 104.794Z" fill="#D3CBCF"/>
<path d="M107.792 117.8C106.155 120.433 104.74 123.207 102.88 125.699C102.398 126.343 102.573 127.388 103.251 127.835C103.961 128.294 104.867 128.184 105.373 127.475C107.223 124.962 108.648 122.21 110.285 119.577C110.703 118.909 110.656 117.912 109.914 117.441C109.257 117.039 108.244 117.09 107.792 117.8Z" fill="#D3CBCF"/>
<path d="M61.5393 116.898C60.8981 119.62 59.7853 122.179 59.122 124.912C59.0183 125.333 58.9831 125.67 59.1626 126.072C59.3122 126.407 59.6566 126.761 59.9998 126.876C60.696 127.127 61.7616 126.838 61.9469 126.005C62.5882 123.282 63.7009 120.723 64.3642 117.991C64.468 117.569 64.5032 117.232 64.3237 116.831C64.174 116.496 63.8296 116.141 63.4865 116.027C62.8002 115.798 61.7347 116.087 61.5393 116.898Z" fill="#D3CBCF"/>
<path d="M86.9216 126.701C85.7325 129.268 84.5976 131.836 83.5469 134.475C83.2674 135.215 83.6521 136.195 84.4247 136.438C85.2073 136.704 86.0581 136.351 86.3718 135.568C87.4004 132.939 88.5575 130.361 89.7466 127.795C90.0803 127.056 89.6093 126.062 88.8688 125.831C88.0541 125.553 87.2675 125.931 86.9216 126.701Z" fill="#D3CBCF"/>
<path d="M63.0862 142.095C62.0385 144.384 61.0031 146.64 59.9454 148.907C59.6117 149.645 60.0827 150.639 60.8232 150.87C61.6379 151.149 62.4245 150.77 62.7704 150C63.828 147.734 64.8535 145.455 65.9111 143.188C66.2448 142.45 65.7739 141.456 65.0334 141.225C64.2408 140.936 63.4542 141.315 63.0862 142.095Z" fill="#D3CBCF"/>
<path d="M48.5495 133.332C48.5356 133.954 48.4352 134.561 48.3128 135.178C48.3106 135.233 48.2863 135.297 48.262 135.362C48.3215 134.96 48.3006 135.211 48.2863 135.297C48.2477 135.448 48.209 135.6 48.1704 135.751C48.0931 136.053 47.9838 136.343 47.8965 136.623C47.4911 137.795 46.9795 138.907 46.4678 140.019C46.1341 140.757 46.605 141.751 47.3456 141.983C48.1602 142.261 48.9468 141.883 49.2927 141.112C50.3647 138.759 51.451 136.319 51.5676 133.67C51.6103 132.874 51.0785 132.041 50.223 131.969C49.4417 131.943 48.5722 132.492 48.5495 133.332Z" fill="#D3CBCF"/>
<path d="M85.3268 144.04C85.1314 144.85 84.8497 145.645 84.4396 146.391C84.4982 146.284 84.5468 146.155 84.6275 146.039C84.1346 146.955 83.5032 147.8 82.8198 148.587C82.592 148.85 82.496 149.348 82.5472 149.7C82.6083 150.074 82.852 150.5 83.1587 150.711C83.4875 150.912 83.8727 151.062 84.2667 150.993C84.6827 150.914 84.9847 150.698 85.2689 150.384C86.5694 148.839 87.6594 147.12 88.1296 145.143C88.2333 144.722 88.2685 144.385 88.089 143.983C87.9394 143.648 87.595 143.294 87.2518 143.179C86.8766 143.052 86.4428 143.032 86.0987 143.213C85.7889 143.351 85.4184 143.651 85.3268 144.04Z" fill="#D3CBCF"/>
<path d="M128.309 109.593C127.12 112.159 125.632 114.591 124.934 117.366C124.83 117.787 124.795 118.124 124.975 118.526C125.124 118.86 125.469 119.215 125.812 119.33C126.508 119.581 127.574 119.292 127.759 118.459C128.424 115.672 129.945 113.252 131.134 110.686C131.477 109.97 130.996 108.953 130.256 108.722C129.431 108.422 128.677 108.812 128.309 109.593Z" fill="#D3CBCF"/>
<path d="M51.2269 67.4001C50.1125 69.1833 49.2285 71.1848 48.7219 73.2586C48.6181 73.6798 48.5829 74.0168 48.7625 74.4184C48.9121 74.7531 49.2565 75.1078 49.5996 75.2222C49.9749 75.3489 50.4087 75.3692 50.7528 75.1886C51.0747 75.0179 51.4452 74.7184 51.5468 74.3518C51.9375 72.7314 52.5751 71.1881 53.361 69.7391C53.3024 69.8456 53.2538 69.9745 53.1731 70.0908C53.3267 69.7812 53.4903 69.4939 53.676 69.1967C53.896 68.8574 53.9976 68.4907 53.9487 68.0843C53.8875 67.71 53.6438 67.2835 53.3371 67.0726C52.6917 66.6382 51.6791 66.6893 51.2269 67.4001Z" fill="#D3CBCF"/>
<path d="M114.576 59.5095C116.239 54.8571 117.819 50.1352 119.9 45.6443C120.234 44.9061 119.751 43.9441 119.022 43.6807C118.22 43.3701 117.409 43.8129 117.075 44.5511C115.004 49.0644 113.437 53.754 111.761 58.4387C111.491 59.2017 111.868 60.1041 112.639 60.4023C113.399 60.6781 114.316 60.2949 114.576 59.5095Z" fill="#D3CBCF"/>
</svg>
